<svg width="63" height="61" viewBox="0 0 63 61" fill="none" xmlns="http://www.w3.org/2000/svg">
<mask id="path-1-inside-1_4_17" fill="white">
<path fill-rule="evenodd" clip-rule="evenodd" d="M10 0C4.47715 0 0 4.47715 0 10V38.8598C0 44.3826 4.47715 48.8598 10 48.8598H12.0888L11.4395 58.8679C11.3168 60.7591 13.6485 61.7445 14.9192 60.3383L25.2922 48.8598H53C58.5228 48.8598 63 44.3826 63 38.8598V10C63 4.47715 58.5228 0 53 0H10Z"/>
</mask>
<path d="M12.0888 48.8598L17.0784 49.1835L17.4238 43.8598H12.0888V48.8598ZM11.4395 58.8679L16.429 59.1916L16.429 59.1916L11.4395 58.8679ZM14.9192 60.3383L18.6288 63.6907L18.6288 63.6907L14.9192 60.3383ZM25.2922 48.8598V43.8598H23.0714L21.5825 45.5074L25.2922 48.8598ZM5 10C5 7.23858 7.23858 5 10 5V-5C1.71573 -5 -5 1.71573 -5 10H5ZM5 38.8598V10H-5V38.8598H5ZM10 43.8598C7.23858 43.8598 5 41.6212 5 38.8598H-5C-5 47.144 1.71573 53.8598 10 53.8598V43.8598ZM12.0888 43.8598H10V53.8598H12.0888V43.8598ZM7.09933 48.536L6.44999 58.5441L16.429 59.1916L17.0784 49.1835L7.09933 48.536ZM6.44999 58.5441C6.02051 65.1636 14.1813 68.6122 18.6288 63.6907L11.2095 56.9859C13.1156 54.8767 16.6131 56.3547 16.429 59.1916L6.44999 58.5441ZM18.6288 63.6907L29.0018 52.2121L21.5825 45.5074L11.2095 56.9859L18.6288 63.6907ZM53 43.8598H25.2922V53.8598H53V43.8598ZM58 38.8598C58 41.6212 55.7614 43.8598 53 43.8598V53.8598C61.2843 53.8598 68 47.144 68 38.8598H58ZM58 10V38.8598H68V10H58ZM53 5C55.7614 5 58 7.23858 58 10H68C68 1.71573 61.2843 -5 53 -5V5ZM10 5H53V-5H10V5Z" fill="#808080" mask="url(#path-1-inside-1_4_17)"/>
</svg>
