<svg width="170" height="170" viewBox="0 0 170 170" fill="none" xmlns="http://www.w3.org/2000/svg">
<path d="M0 0H170L0 170V0Z" fill="#FF0000"/>
<path d="M28.4538 85.4621C27.4896 84.6586 26.445 84.3291 25.32 84.4738C24.1951 84.6023 23.0501 85.2492 21.8849 86.4143C21.1136 87.1857 20.5712 87.9289 20.2578 88.6441C19.9444 89.3592 19.8359 90.0221 19.9324 90.6328C20.0208 91.2355 20.2859 91.7658 20.7279 92.2238C21.0814 92.6095 21.4792 92.8626 21.9211 92.9831C22.3711 93.0956 22.8612 93.1037 23.3916 93.0073C23.9219 92.8948 24.4924 92.6939 25.1031 92.4046C25.7138 92.1153 26.3606 91.7497 27.0436 91.3078L29.647 89.6686C31.1336 88.7124 32.5639 87.9892 33.9379 87.4991C35.32 87.0009 36.6337 86.7397 37.8792 86.7156C39.1327 86.6835 40.3219 86.9004 41.4469 87.3665C42.5718 87.8325 43.6325 88.5557 44.6289 89.536C46.1797 91.1029 47.1238 92.8345 47.4613 94.7308C47.7988 96.6272 47.5336 98.6038 46.6658 100.661C45.806 102.71 44.3476 104.763 42.2906 106.82C40.2255 108.885 38.1163 110.376 35.9628 111.292C33.8093 112.208 31.676 112.461 29.5627 112.051C27.4494 111.641 25.4165 110.484 23.4639 108.58L29.177 102.867C30.0207 103.614 30.8965 104.064 31.8045 104.217C32.7125 104.369 33.6326 104.253 34.5647 103.867C35.5048 103.473 36.4128 102.838 37.2886 101.963C38.0922 101.159 38.6667 100.368 39.0122 99.5882C39.3657 98.8007 39.5023 98.0615 39.422 97.3704C39.3416 96.6794 39.0564 96.0808 38.5662 95.5745C38.0922 95.1165 37.5498 94.8634 36.9391 94.8152C36.3204 94.7589 35.5972 94.9036 34.7696 95.2491C33.9419 95.5786 32.9737 96.0888 31.8648 96.7798L28.6828 98.7565C26.0553 100.404 23.5804 101.296 21.2582 101.432C18.9279 101.561 16.8307 100.685 14.9665 98.8047C13.4318 97.2861 12.5037 95.5384 12.1823 93.5617C11.8609 91.585 12.11 89.544 12.9296 87.4388C13.7492 85.3335 15.0951 83.3448 16.9673 81.4726C18.8797 79.5602 20.8645 78.2263 22.9215 77.471C24.9785 76.6996 26.9793 76.5068 28.9239 76.8925C30.8684 77.2781 32.6161 78.2303 34.1669 79.749L28.4538 85.4621ZM67.1872 81.9957C65.2426 83.9402 63.1735 85.2138 60.9799 85.8165C58.7863 86.403 56.5967 86.3588 54.411 85.6839C52.2254 84.9928 50.1845 83.6992 48.2881 81.8028C46.3838 79.8985 45.0901 77.8575 44.4071 75.6799C43.7241 73.4863 43.6799 71.2967 44.2745 69.1111C44.8691 66.9094 46.1387 64.8363 48.0832 62.8917C50.0278 60.9472 52.0969 59.6816 54.2905 59.0951C56.4842 58.4924 58.6738 58.5366 60.8594 59.2276C63.045 59.9026 65.09 61.1923 66.9943 63.0966C68.8907 64.993 70.1803 67.038 70.8633 69.2316C71.5463 71.4092 71.5905 73.5988 70.9959 75.8005C70.4013 77.9861 69.1317 80.0511 67.1872 81.9957ZM62.7758 77.512C63.4829 76.8049 63.8646 75.9893 63.9208 75.0652C63.9771 74.1412 63.7481 73.1649 63.2338 72.1364C62.7276 71.0998 61.9683 70.0753 60.9558 69.0629C59.9273 68.0343 58.8947 67.267 57.8582 66.7607C56.8297 66.2465 55.8534 66.0175 54.9293 66.0737C54.0053 66.13 53.1897 66.5116 52.4826 67.2187C51.7514 67.95 51.3496 68.7856 51.2773 69.7258C51.213 70.6579 51.434 71.6422 51.9402 72.6787C52.4545 73.7073 53.2258 74.7358 54.2544 75.7643C55.2668 76.7767 56.2873 77.5401 57.3158 78.0544C58.3524 78.5606 59.3367 78.7816 60.2688 78.7173C61.2089 78.645 62.0446 78.2432 62.7758 77.512ZM63.8136 35.3013L88.498 59.9858L82.6041 65.8797L57.9197 41.1952L63.8136 35.3013ZM102.67 46.3436C101.304 47.7096 99.7095 48.5975 97.8855 49.0073C96.0614 49.4171 94.1089 49.2484 92.0277 48.5011C89.9466 47.7538 87.8574 46.3316 85.7602 44.2344C83.5826 42.0568 82.1363 39.9194 81.4211 37.8222C80.706 35.725 80.5694 33.7804 81.0113 31.9886C81.4613 30.1887 82.3331 28.6419 83.6268 27.3482C84.5991 26.3759 85.5995 25.713 86.628 25.3594C87.6485 24.9978 88.6449 24.8532 89.6171 24.9255C90.5894 24.9978 91.4733 25.1987 92.2688 25.5282L92.3893 25.4076L83.0483 16.0666L88.9422 10.1727L113.627 34.8572L107.793 40.6908L104.792 37.6896L104.611 37.8704C104.932 38.69 105.113 39.5779 105.153 40.5341C105.194 41.4903 105.021 42.4666 104.635 43.463C104.257 44.4513 103.603 45.4115 102.67 46.3436ZM100.127 39.7025C100.842 38.9873 101.252 38.1757 101.357 37.2678C101.453 36.3517 101.268 35.3875 100.802 34.375C100.336 33.3626 99.605 32.3582 98.6086 31.3618C97.5962 30.3494 96.5878 29.6141 95.5833 29.1561C94.587 28.6901 93.6348 28.5173 92.7268 28.6378C91.8268 28.7503 91.0193 29.1641 90.3042 29.8793C89.5729 30.6105 89.1551 31.4301 89.0506 32.3381C88.9462 33.2461 89.127 34.1983 89.593 35.1946C90.0671 36.183 90.8023 37.1753 91.7987 38.1717C92.7951 39.1681 93.7955 39.9033 94.7999 40.3774C95.8043 40.8515 96.7605 41.0443 97.6685 40.956C98.5765 40.8515 99.3961 40.4337 100.127 39.7025Z" fill="white"/>
</svg>
