<svg width="59" height="57" viewBox="0 0 59 57" fill="none" xmlns="http://www.w3.org/2000/svg">
<path d="M29.9755 3.5537L34.8681 18.6115C35.6044 20.8776 37.7162 22.4119 40.0989 22.4119H55.9316C56.1015 22.4119 56.1845 22.4587 56.2342 22.4971C56.299 22.5472 56.3673 22.635 56.4071 22.7573C56.4469 22.8797 56.4432 22.9908 56.4202 23.0696C56.4026 23.1298 56.3629 23.2165 56.2255 23.3164L43.4166 32.6226C41.4889 34.0231 40.6823 36.5056 41.4186 38.7718L46.3111 53.8295C46.3636 53.9911 46.3448 54.0846 46.3236 54.1436C46.2959 54.2208 46.2336 54.3129 46.1295 54.3885C46.0254 54.4642 45.9186 54.495 45.8366 54.4975C45.7739 54.4994 45.6792 54.4884 45.5417 54.3885L32.7328 45.0823C30.8051 43.6818 28.1949 43.6818 26.2672 45.0823L13.4583 54.3885C13.3208 54.4884 13.2261 54.4994 13.1634 54.4975C13.0814 54.495 12.9746 54.4642 12.8705 54.3885C12.7664 54.3129 12.7041 54.2208 12.6764 54.1436C12.6552 54.0846 12.6364 53.9911 12.6889 53.8295L17.5814 38.7718C18.3177 36.5056 17.5111 34.0231 15.5834 32.6226L2.77453 23.3164C2.63708 23.2165 2.59741 23.1298 2.57982 23.0696C2.55683 22.9909 2.55313 22.8798 2.5929 22.7574C2.63267 22.635 2.70097 22.5473 2.76584 22.4971C2.81548 22.4587 2.89852 22.4119 3.06843 22.4119H18.9011C21.2838 22.4119 23.3956 20.8776 24.1319 18.6115L29.0245 3.55369C29.077 3.3921 29.1472 3.32759 29.199 3.29224C29.2668 3.24605 29.3713 3.2082 29.5 3.2082C29.6287 3.2082 29.7332 3.24605 29.801 3.29224C29.8528 3.32759 29.923 3.3921 29.9755 3.5537Z" stroke="#808080" stroke-width="5"/>
</svg>
